<?xml version="1.0" encoding="UTF-8"?>
<svg id="Layer_1" xmlns="http://www.w3.org/2000/svg" version="1.1" viewBox="0 0 452.91 426.22">
  <!-- Generator: Adobe Illustrator 29.0.1, SVG Export Plug-In . SVG Version: 2.1.0 Build 192)  -->
  <g>
    <polygon points="317.95 18.65 242.95 53.63 189.95 78.34 189.95 161.09 242.95 136.38 242.95 306.84 317.95 271.87 317.95 101.4 357.95 82.75 357.95 0 317.95 18.65"/>
    <polygon points="169.95 189.76 169.95 35 94.95 0 94.95 146.46 94.95 217.47 94.95 233.07 169.95 276.37 222.95 306.97 222.95 220.36 169.95 189.76"/>
  </g>
  <g>
    <path d="M0,424.6v-94.11h17.8v78.34h37.08v15.78H0Z"/>
    <path d="M121.35,424.6c-3.78,0-6.77-1.1-8.97-3.3-2.2-2.2-3.57-5.14-4.11-8.83h-.81c-1.17,4.58-3.55,8.02-7.15,10.31-3.6,2.29-8.05,3.44-13.35,3.44-7.19,0-12.72-1.88-16.58-5.64-3.87-3.76-5.8-8.78-5.8-15.05,0-7.26,2.61-12.66,7.82-16.19,5.21-3.54,12.63-5.31,22.25-5.31h12v-5.12c0-3.95-1.03-7.01-3.1-9.17-2.07-2.16-5.39-3.24-9.98-3.24-4.04,0-7.3.88-9.78,2.63-2.47,1.75-4.56,3.84-6.27,6.27l-10.25-9.22c2.61-4.07,6.07-7.35,10.38-9.83,4.31-2.49,10.02-3.73,17.12-3.73,9.53,0,16.76,2.15,21.71,6.46,4.94,4.31,7.42,10.49,7.42,18.56v33.09h7.01v13.89h-9.57ZM92.77,413.68c3.86,0,7.15-.85,9.84-2.54,2.7-1.7,4.05-4.2,4.05-7.5v-9.24h-11.06c-8.99,0-13.48,2.86-13.48,8.57v2.28c0,2.86.92,4.98,2.76,6.36,1.84,1.38,4.47,2.08,7.89,2.08Z"/>
    <path d="M144.95,424.6v-70.38h17.26v14.56h.67c.45-1.89,1.15-3.71,2.09-5.46s2.18-3.3,3.71-4.65c1.53-1.35,3.35-2.43,5.46-3.24,2.11-.81,4.56-1.21,7.35-1.21h3.78v16.31h-5.39c-5.84,0-10.25.86-13.21,2.56-2.97,1.71-4.45,4.5-4.45,8.36v43.15h-17.26Z"/>
    <path d="M248.23,424.6c-3.78,0-6.76-1.1-8.97-3.3-2.2-2.2-3.57-5.14-4.11-8.83h-.81c-1.17,4.58-3.55,8.02-7.15,10.31-3.6,2.29-8.05,3.44-13.35,3.44-7.19,0-12.72-1.88-16.58-5.64-3.87-3.76-5.8-8.78-5.8-15.05,0-7.26,2.61-12.66,7.82-16.19,5.21-3.54,12.63-5.31,22.25-5.31h12v-5.12c0-3.95-1.03-7.01-3.1-9.17-2.07-2.16-5.39-3.24-9.98-3.24-4.05,0-7.3.88-9.78,2.63-2.47,1.75-4.56,3.84-6.27,6.27l-10.25-9.22c2.61-4.07,6.07-7.35,10.38-9.83,4.32-2.49,10.02-3.73,17.12-3.73,9.53,0,16.76,2.15,21.71,6.46,4.94,4.31,7.42,10.49,7.42,18.56v33.09h7.01v13.89h-9.57ZM219.64,413.68c3.86,0,7.15-.85,9.84-2.54,2.7-1.7,4.04-4.2,4.04-7.5v-9.24h-11.06c-8.99,0-13.48,2.86-13.48,8.57v2.28c0,2.86.92,4.98,2.76,6.36,1.84,1.38,4.47,2.08,7.89,2.08Z"/>
    <path d="M285.71,424.6l-23.46-70.38h16.99l9.84,30.34,6.88,25.08h.94l6.88-25.08,9.57-30.34h16.45l-23.6,70.38h-20.5Z"/>
    <path d="M349.89,343.97c-3.6,0-6.18-.81-7.75-2.43-1.57-1.62-2.36-3.68-2.36-6.2v-2.7c0-2.52.79-4.58,2.36-6.2,1.57-1.62,4.16-2.43,7.75-2.43s6.07.81,7.69,2.43c1.62,1.62,2.43,3.69,2.43,6.2v2.7c0,2.52-.81,4.58-2.43,6.2-1.62,1.62-4.18,2.43-7.69,2.43ZM341.26,354.22h17.26v70.38h-17.26v-70.38Z"/>
    <path d="M395.74,424.6c-5.93,0-10.29-1.48-13.08-4.45-2.79-2.97-4.18-7.15-4.18-12.54v-82.79h17.26v85.89h9.3v13.89h-9.3Z"/>
    <path d="M439.42,424.6c-5.93,0-10.45-1.55-13.55-4.64-3.1-3.09-4.65-7.51-4.65-13.25v-38.6h-10.38v-13.89h5.39c2.61,0,4.38-.61,5.33-1.82.94-1.21,1.42-3.03,1.42-5.46v-12h15.51v19.28h14.43v13.89h-14.43v42.61h13.35v13.89h-12.41Z"/>
  </g>
</svg>